<svg width="1000" height="1000" viewBox="0 0 1000 1000" fill="none" xmlns="http://www.w3.org/2000/svg">
<path d="M205 613.162C205 766.827 336.274 801.706 401.911 799.937C351.197 789.502 249.768 737.537 249.768 613.162C249.768 457.693 418 482.101 418 273.04C418 105.792 276 52.6598 205 47C255.131 61.6802 355.394 127.441 355.394 273.04C355.394 455.04 205 421.081 205 613.162Z" fill="black"/>
<path d="M98 613.162C98 766.827 229.274 801.706 294.911 799.937C244.197 789.502 142.768 737.537 142.768 613.162C142.769 457.693 311 482.101 311 273.04C311 105.792 169 52.6598 98.0001 47C148.131 61.6802 248.394 127.441 248.394 273.04C248.394 455.04 98 421.081 98 613.162Z" fill="black"/>
<path d="M1.63339e-05 613.162C2.90008e-06 766.827 131.274 801.706 196.911 799.937C146.197 789.502 44.7685 737.537 44.7685 613.162C44.7685 457.693 213 482.101 213 273.04C213 105.792 71.0001 52.6598 6.58294e-05 47C50.1314 61.6802 150.394 127.441 150.394 273.04C150.394 455.04 3.31262e-05 421.081 1.63339e-05 613.162Z" fill="black"/>
</svg>
