<svg width="1000" height="1000" viewBox="0 0 1000 1000" fill="none" xmlns="http://www.w3.org/2000/svg">
<path d="M181 615.162C181 768.827 312.274 803.706 377.911 801.937C327.197 791.502 225.768 739.537 225.768 615.162C225.769 459.693 394 484.101 394 275.04C394 107.792 252 54.6598 181 49C231.131 63.6802 331.394 129.441 331.394 275.04C331.394 457.04 181 423.081 181 615.162Z" fill="black"/>
<path d="M271 614.162C271 767.827 402.274 802.706 467.911 800.937C417.197 790.502 315.768 738.537 315.768 614.162C315.769 458.693 484 483.101 484 274.04C484 106.792 342 53.6598 271 48C321.131 62.6802 421.394 128.441 421.394 274.04C421.394 456.04 271 422.081 271 614.162Z" fill="black"/>
<path d="M87 615.162C87 768.827 218.274 803.706 283.911 801.937C233.197 791.502 131.768 739.537 131.768 615.162C131.769 459.693 300 484.101 300 275.04C300 107.792 158 54.6598 87.0001 49C137.131 63.6802 237.394 129.441 237.394 275.04C237.394 457.04 87 423.081 87 615.162Z" fill="black"/>
<path d="M1.63339e-05 613.162C2.90008e-06 766.827 131.274 801.706 196.911 799.937C146.197 789.502 44.7685 737.537 44.7685 613.162C44.7685 457.693 213 482.101 213 273.04C213 105.792 71.0001 52.6598 6.58294e-05 47C50.1314 61.6802 150.394 127.441 150.394 273.04C150.394 455.04 3.31262e-05 421.081 1.63339e-05 613.162Z" fill="black"/>
</svg>
